<svg xmlns="http://www.w3.org/2000/svg" width="3112" height="623" viewBox="0 0 3112 623" fill="none"><path d="M781.37 354C785.164 354 787.187 356.023 787.187 359.816V384.6C787.187 388.393 785.164 390.417 781.37 390.417H650.119C645.061 390.417 641.521 391.681 639.498 394.463C637.474 396.992 636.463 400.785 636.463 405.084V413.936C636.463 423.798 641.015 428.603 650.119 428.603H748.241C763.415 428.603 774.795 432.397 782.635 440.236C790.222 448.076 794.268 459.203 794.268 473.618V494.608C794.268 507.253 790.474 517.621 782.888 525.461C775.301 533.301 763.668 537.347 747.736 537.347H602.575C598.529 537.347 596.506 535.324 596.506 531.531V506.747C596.506 502.954 598.529 500.931 602.575 500.931H740.149C745.207 500.931 748.747 499.666 750.77 496.884C752.793 494.355 753.805 490.815 753.805 486.263V475.641C753.805 465.778 749.253 460.974 740.149 460.974H642.026C626.853 460.974 615.473 457.18 607.633 449.341C600.046 441.501 596 430.374 596 415.959V396.739C596 384.094 599.793 373.726 607.38 365.886C614.967 358.046 626.6 354 642.532 354H781.37V354Z" fill="white"></path><path d="M889.102 354C892.896 354 894.919 356.023 894.919 359.816V464.261C894.919 471.342 895.425 477.159 896.689 481.711C897.701 486.263 899.724 490.056 902.253 492.585C904.782 495.367 908.322 497.137 912.874 498.402C917.426 499.666 922.99 500.172 929.818 500.172H1002.4C1009.23 500.172 1014.79 499.666 1019.34 498.402C1023.89 497.39 1027.43 495.367 1029.96 492.585C1032.49 489.803 1034.52 486.263 1035.53 481.711C1036.54 477.159 1037.04 471.342 1037.04 464.261V359.816C1037.04 356.023 1039.07 354 1042.86 354H1071.44C1075.23 354 1077.25 356.023 1077.25 359.816V468.307C1077.25 480.952 1075.99 491.574 1073.21 500.425C1070.68 509.276 1066.38 516.357 1060.56 521.921C1054.75 527.484 1047.16 531.278 1037.8 533.807C1028.45 536.336 1017.07 537.347 1003.92 537.347H928.554C915.403 537.347 904.023 536.083 894.666 533.807C885.309 531.278 877.975 527.484 871.906 521.921C866.089 516.357 861.79 509.276 859.008 500.425C856.226 491.574 854.962 480.952 854.962 468.307V359.816C854.962 356.023 856.985 354 861.031 354H889.102Z" fill="white"></path><path d="M1346.33 354C1350.13 354 1352.15 356.023 1352.15 359.816V385.359C1352.15 389.405 1350.13 391.428 1346.33 391.428H1215.08C1208.25 391.428 1202.69 391.934 1198.14 393.198C1193.59 394.21 1190.04 396.233 1187.52 399.015C1184.99 401.797 1182.96 405.337 1181.95 409.889C1180.94 414.441 1180.18 420.258 1180.18 427.086V464.767C1180.18 471.848 1180.69 477.665 1181.95 482.217C1182.96 486.769 1184.99 490.562 1187.52 493.091C1190.04 495.873 1193.59 497.643 1198.14 498.907C1202.69 499.919 1208.25 500.678 1215.08 500.678H1301.57C1306.12 500.678 1309.41 499.413 1311.43 497.137C1313.46 494.861 1314.47 490.562 1314.47 484.746V463.502C1314.47 461.226 1313.46 460.215 1311.43 460.215H1234.81C1231.01 460.215 1228.99 458.192 1228.99 454.145V434.42C1228.99 430.374 1231.01 428.35 1234.81 428.35H1344.06C1349.37 428.35 1351.9 430.879 1351.9 436.19V497.137C1351.9 511.805 1349.11 522.174 1343.55 528.243C1337.99 534.312 1329.89 537.347 1319.53 537.347H1213.82C1200.67 537.347 1189.29 536.083 1179.93 533.807C1170.57 531.278 1163.24 527.484 1157.17 521.921C1151.35 516.357 1147.05 509.276 1144.27 500.425C1141.49 491.574 1140.22 480.952 1140.22 468.307V423.293C1140.22 410.648 1141.49 400.026 1144.27 391.428C1147.05 382.577 1151.35 375.496 1157.17 370.185C1162.99 364.622 1170.57 360.575 1179.93 358.046C1189.29 355.517 1200.41 354.253 1213.82 354.253H1346.33V354Z" fill="white"></path><path d="M1527.4 354C1533.98 354 1539.54 355.264 1544.09 358.046C1548.65 360.828 1553.2 366.139 1557.5 373.979L1644.24 531.278C1645 533.048 1645.25 534.565 1645 535.577C1644.49 536.588 1643.23 537.347 1641.2 537.347H1607.82C1604.79 537.347 1602.77 536.336 1601.75 534.06L1583.04 500.172H1459.88L1441.93 534.06C1440.66 536.336 1438.64 537.347 1435.86 537.347H1401.72C1399.44 537.347 1398.18 536.841 1397.67 535.577C1397.16 534.565 1397.42 533.048 1398.43 531.278L1484.41 373.979C1488.71 366.139 1493.01 360.828 1497.31 358.046C1501.61 355.264 1506.41 354 1511.98 354H1527.4ZM1476.57 469.825H1566.6L1524.87 393.198C1524.12 391.934 1523.1 391.428 1522.09 391.428H1520.58C1519.31 391.428 1518.3 391.934 1517.79 393.198L1476.57 469.825Z" fill="white"></path><path d="M1846.3 354C1866.28 354 1880.69 358.552 1889.55 367.656C1898.4 376.76 1902.7 390.164 1902.7 407.866V422.787C1902.7 437.707 1899.66 449.593 1893.59 458.445C1887.52 467.296 1877.41 472.86 1863.75 475.136L1908.51 530.772C1909.27 531.531 1909.52 533.048 1909.27 534.818C1909.02 536.588 1907.5 537.347 1904.97 537.347H1871.08C1868.81 537.347 1867.29 537.094 1866.28 536.588C1865.52 536.083 1864.51 535.071 1863.75 534.06L1822.28 479.688H1737.81V531.783C1737.81 535.577 1735.79 537.6 1731.99 537.6H1703.92C1699.88 537.6 1697.85 535.577 1697.85 531.783V362.093C1697.85 356.782 1700.38 354.253 1705.69 354.253H1846.3V354ZM1737.81 447.57H1838.21C1847.06 447.57 1853.38 445.547 1857.18 441.754C1860.72 437.96 1862.74 432.144 1862.74 424.304V413.43C1862.74 405.59 1860.97 399.774 1857.18 395.98C1853.63 392.187 1847.31 390.164 1838.21 390.164H1741.35C1739.07 390.164 1738.06 391.175 1738.06 393.198V447.57H1737.81Z" fill="white"></path><path d="M2119.17 354C2122.97 354 2124.99 356.023 2124.99 359.816V464.261C2124.99 471.342 2125.49 477.159 2126.76 481.711C2127.77 486.263 2129.79 490.056 2132.32 492.585C2134.85 495.367 2138.39 497.137 2142.94 498.402C2147.5 499.666 2153.06 500.172 2159.89 500.172H2265.85C2269.64 500.172 2271.67 502.195 2271.67 505.988V531.531C2271.67 535.324 2269.64 537.347 2265.85 537.347H2158.12C2144.97 537.347 2133.59 536.083 2124.23 533.807C2114.87 531.278 2107.54 527.484 2101.47 521.921C2095.65 516.357 2091.35 509.276 2088.57 500.425C2085.79 491.574 2084.53 480.952 2084.53 468.307V359.816C2084.53 356.023 2086.55 354 2090.6 354H2119.17V354Z" fill="white"></path><path d="M2442.87 354C2449.45 354 2455.01 355.264 2459.57 358.046C2464.12 360.828 2468.67 366.139 2472.97 373.979L2559.71 531.278C2560.47 533.048 2560.72 534.565 2560.47 535.577C2559.96 536.588 2558.7 537.347 2556.68 537.347H2523.29C2520.26 537.347 2518.24 536.336 2517.22 534.06L2498.51 500.172H2375.35L2357.4 534.06C2356.13 536.336 2354.11 537.347 2351.33 537.347H2317.19C2314.91 537.347 2313.65 536.841 2313.14 535.577C2312.63 534.565 2312.89 533.048 2313.9 531.278L2399.88 373.979C2404.18 366.139 2408.48 360.828 2412.78 358.046C2417.08 355.264 2421.88 354 2427.45 354H2442.87ZM2392.04 469.825H2482.07L2440.35 393.198C2439.59 391.934 2438.58 391.428 2437.56 391.428H2436.05C2434.78 391.428 2433.77 391.934 2433.26 393.198L2392.04 469.825Z" fill="white"></path><path d="M2659.86 354C2664.16 354 2667.44 354.253 2670.23 354.506C2673.01 354.759 2675.54 355.517 2677.56 356.782C2679.58 357.793 2681.61 359.564 2683.63 361.587C2685.65 363.61 2687.67 366.139 2690.2 369.679L2787.57 497.39C2788.33 498.655 2789.34 499.16 2790.86 499.16H2793.13C2794.65 499.16 2795.15 498.402 2795.15 496.631V360.069C2795.15 356.276 2797.18 354.253 2800.97 354.253H2828.54C2832.33 354.253 2834.35 356.276 2834.35 360.069V510.288C2834.35 520.909 2832.33 528.243 2828.54 531.783C2824.74 535.577 2818.67 537.347 2810.83 537.347H2788.33C2784.28 537.347 2780.99 537.094 2778.21 536.841C2775.43 536.588 2773.15 535.83 2771.13 534.818C2769.11 533.807 2767.08 532.289 2765.06 530.266C2763.04 528.243 2760.76 525.461 2758.23 521.921L2660.62 394.21C2659.6 392.946 2658.34 392.44 2657.33 392.44H2655.05C2653.53 392.44 2653.03 393.198 2653.03 394.969V531.531C2653.03 535.324 2651.01 537.347 2647.21 537.347H2619.65C2615.6 537.347 2613.58 535.324 2613.58 531.531V381.312C2613.58 370.691 2615.6 363.357 2619.39 359.816C2623.19 356.023 2629.26 354.253 2637.1 354.253H2659.86V354Z" fill="white"></path><path d="M3031.1 354C3045.27 354 3057.4 355.517 3067.52 358.299C3077.64 361.081 3085.98 365.633 3092.3 371.702C3098.88 377.772 3103.43 385.359 3106.47 394.716C3109.5 404.073 3111.02 415.2 3111.02 427.845V463.502C3111.02 476.147 3109.5 487.274 3106.47 496.631C3103.43 505.989 3098.63 513.575 3092.3 519.645C3085.73 525.714 3077.64 530.013 3067.52 533.048C3057.4 535.83 3045.27 537.347 3031.1 537.347H2908.45C2903.14 537.347 2900.61 534.818 2900.61 529.508V361.84C2900.61 356.529 2903.14 354 2908.45 354H3031.1V354ZM2940.82 497.643C2940.82 499.919 2941.83 500.931 2944.11 500.931H3030.09C3037.68 500.931 3044.25 500.172 3049.56 498.907C3054.87 497.39 3058.92 495.367 3062.21 492.079C3065.5 488.792 3067.77 484.745 3069.04 479.435C3070.55 474.124 3071.06 467.802 3071.06 459.962V431.132C3071.06 423.545 3070.3 416.97 3069.04 411.659C3067.52 406.349 3065.24 402.302 3062.21 399.015C3059.17 395.727 3054.62 393.704 3049.56 392.187C3044.25 390.669 3037.93 390.164 3030.09 390.164H2944.11C2941.83 390.164 2940.82 391.428 2940.82 393.704V497.643Z" fill="white"></path><path d="M572.505 137.762C572.505 93.3255 562.12 51.2979 543.655 14C443.927 109.679 379.646 242.045 372.473 389.385C372.246 389.403 372.019 389.42 371.792 389.455H371.722C355.871 390.897 341.254 396.615 329.043 405.459C318.717 412.937 306.254 417.003 293.505 417.014C293.421 417.014 293.337 417.014 293.252 417.014C293.173 417.014 293.093 417.014 293.013 417.014C280.304 417.003 267.849 413.003 257.57 405.53C245.149 396.5 230.226 390.708 214.032 389.385C206.859 242.045 142.578 109.679 42.8503 14C24.3847 51.2979 14 93.3255 14 137.762C14 251.818 82.3644 349.889 180.347 393.242C145.598 404.43 120.465 437.015 120.465 475.483C120.465 508.556 139.035 537.267 166.332 551.788L168.13 552.713L194.519 566.327L259.061 599.645C269.08 605.597 280.773 609 293.252 609C302.799 609 311.892 607.01 320.113 603.398L328.299 599.139L391.863 565.908L400.959 561.162C406.003 558.53 411.171 556.151 416.322 553.733C445.699 539.94 466.04 510.089 466.04 475.482C466.04 437.015 440.907 404.43 406.158 393.242C504.14 349.889 572.505 251.818 572.505 137.762Z" fill="white"></path><g filter="url(#filter0_f_114_41)"><path d="M572.505 137.762C572.505 93.3255 562.12 51.2979 543.655 14C443.927 109.679 379.646 242.045 372.473 389.385C372.246 389.403 372.019 389.42 371.792 389.455H371.722C355.871 390.897 341.254 396.615 329.043 405.459C318.717 412.937 306.254 417.003 293.505 417.014C293.421 417.014 293.337 417.014 293.252 417.014C293.173 417.014 293.093 417.014 293.013 417.014C280.304 417.003 267.849 413.003 257.57 405.53C245.149 396.5 230.226 390.708 214.032 389.385C206.859 242.045 142.578 109.679 42.8503 14C24.3847 51.2979 14 93.3255 14 137.762C14 251.818 82.3644 349.889 180.347 393.242C145.598 404.43 120.465 437.015 120.465 475.483C120.465 508.556 139.035 537.267 166.332 551.788L168.13 552.713L194.519 566.327L259.061 599.645C269.08 605.597 280.773 609 293.252 609C302.799 609 311.892 607.01 320.113 603.398L328.299 599.139L391.863 565.908L400.959 561.162C406.003 558.53 411.171 556.151 416.322 553.733C445.699 539.94 466.04 510.089 466.04 475.482C466.04 437.015 440.907 404.43 406.158 393.242C504.14 349.889 572.505 251.818 572.505 137.762Z" fill="white"></path></g><defs><filter id="filter0_f_114_41" x="0" y="0" width="586.505" height="623" filterUnits="userSpaceOnUse" color-interpolation-filters="sRGB"><feGaussianBlur stdDeviation="7"></feGaussianBlur></filter></defs></svg>